# xmcd
#
# Track frame offsets:
#	150
#	34710
#	52275
#	75787
#	91694
#	113391
#	137953
#	160880
#	173472
#	195492
#	239644
#	254494
#	271489
#
# Disc length: 4265 seconds
#
# Revision: 0
# Processed by: cddbd v1.5.2PL0 Copyright (c) Steve Scherf et al.
# Submitted via: EZCDAudioConverter 3.1.0.1
#
DISCID=a310a70d
DTITLE=Farlight - The Peacock Mixtape
DYEAR=1900
DGENRE=Blues
TTITLE0=A Last Time One
TTITLE1=Mary Had a Little Lamb
TTITLE2=Caregiver (feat AntOnin)
TTITLE3=Hug You Squeeze You
TTITLE4=Last Night (feat Clément Baldzuhn)
TTITLE5=Firefly
TTITLE6=Among the Noise
TTITLE7=You Better Leave
TTITLE8=Need some Help (feat Yurie Hu)
TTITLE9=Love in Vain
TTITLE10=It Hurts me Too
TTITLE11=Everything You've Done
TTITLE12=Candle
EXTD=
EXTT0=
EXTT1=
EXTT2=
EXTT3=
EXTT4=
EXTT5=
EXTT6=
EXTT7=
EXTT8=
EXTT9=
EXTT10=
EXTT11=
EXTT12=
PLAYORDER=
